<svg width="30" height="30" viewBox="0 0 30 30" fill="none" xmlns="http://www.w3.org/2000/svg">
<path d="M15.0001 10.9377C12.7564 10.9377 10.9376 12.7565 10.9376 15.0002C10.9376 17.2438 12.7564 19.0627 15.0001 19.0627C17.2438 19.0627 19.0626 17.2438 19.0626 15.0002C19.0626 12.7565 17.2438 10.9377 15.0001 10.9377Z" fill="#005C9D"/>
<path fill-rule="evenodd" clip-rule="evenodd" d="M8.46203 3.85201C12.7722 3.37029 17.2281 3.37029 21.5382 3.85201C23.9112 4.11723 25.8252 5.98695 26.1037 8.36827C26.6191 12.7745 26.6191 17.2258 26.1037 21.6321C25.8252 24.0134 23.9112 25.8831 21.5382 26.1483C17.2281 26.6301 12.7722 26.6301 8.46203 26.1483C6.08903 25.8831 4.17504 24.0134 3.89652 21.6321C3.38117 17.2258 3.38117 12.7745 3.89652 8.36827C4.17504 5.98695 6.08903 4.11723 8.46203 3.85201ZM21.2501 7.50018C20.5597 7.50018 20.0001 8.05982 20.0001 8.75018C20.0001 9.44054 20.5597 10.0002 21.2501 10.0002C21.9405 10.0002 22.5001 9.44054 22.5001 8.75018C22.5001 8.05982 21.9405 7.50018 21.2501 7.50018ZM9.06261 15.0002C9.06261 11.721 11.7209 9.06268 15.0001 9.06268C18.2793 9.06268 20.9376 11.721 20.9376 15.0002C20.9376 18.2794 18.2793 20.9377 15.0001 20.9377C11.7209 20.9377 9.06261 18.2794 9.06261 15.0002Z" fill="#005C9D"/>
</svg>
