<svg width="24" height="25" viewBox="0 0 24 25" fill="none" xmlns="http://www.w3.org/2000/svg">
<path d="M2.9375 0.34375C1.47049 0.34375 0.28125 1.53299 0.28125 3C0.28125 4.46701 1.47049 5.65625 2.9375 5.65625C4.40451 5.65625 5.59375 4.46701 5.59375 3C5.59375 1.53299 4.40451 0.34375 2.9375 0.34375Z" fill="#005C9D"/>
<path d="M0.4375 7.84375C0.351206 7.84375 0.28125 7.91371 0.28125 8V24.25C0.28125 24.3363 0.351206 24.4062 0.4375 24.4062H5.4375C5.52379 24.4062 5.59375 24.3363 5.59375 24.25V8C5.59375 7.91371 5.52379 7.84375 5.4375 7.84375H0.4375Z" fill="#005C9D"/>
<path d="M8.5625 7.84375C8.47621 7.84375 8.40625 7.91371 8.40625 8V24.25C8.40625 24.3363 8.47621 24.4062 8.5625 24.4062H13.5625C13.6488 24.4062 13.7188 24.3363 13.7188 24.25V15.5C13.7188 14.8784 13.9657 14.2823 14.4052 13.8427C14.8448 13.4032 15.4409 13.1562 16.0625 13.1562C16.6841 13.1562 17.2802 13.4032 17.7198 13.8427C18.1593 14.2823 18.4062 14.8784 18.4062 15.5V24.25C18.4062 24.3363 18.4762 24.4062 18.5625 24.4062H23.5625C23.6488 24.4062 23.7188 24.3363 23.7188 24.25V13.4753C23.7188 10.4419 21.0805 8.06874 18.0623 8.34312C17.1315 8.42774 16.2112 8.65914 15.3518 9.02743L13.7188 9.72733V8C13.7188 7.91371 13.6488 7.84375 13.5625 7.84375H8.5625Z" fill="#005C9D"/>
</svg>
