<svg width="30" height="30" viewBox="0 0 30 30" fill="none" xmlns="http://www.w3.org/2000/svg">
<path fill-rule="evenodd" clip-rule="evenodd" d="M23.1039 24.7378L23.1047 24.7356L23.1265 24.6812L26.875 5.78241V5.72102C26.875 5.25014 26.701 4.83907 26.3224 4.5925C25.991 4.37667 25.6101 4.3613 25.3429 4.38157C25.0604 4.40302 24.794 4.47354 24.6096 4.53224C24.5147 4.56244 24.4353 4.59153 24.3785 4.61354C24.35 4.62459 24.3269 4.63396 24.3101 4.64094L24.2936 4.64789L3.39383 12.8466L3.38808 12.8486C3.37679 12.8527 3.36187 12.8583 3.34384 12.8653C3.30789 12.8793 3.25897 12.8993 3.20149 12.9254C3.08864 12.9765 2.93272 13.0555 2.7746 13.1637C2.50603 13.3477 1.99464 13.7831 2.08099 14.4733C2.15251 15.0451 2.54664 15.4082 2.81235 15.5962C2.95479 15.697 3.09106 15.7697 3.19084 15.8172C3.2414 15.8413 3.28435 15.8597 3.31633 15.8727C3.33237 15.8793 3.34578 15.8845 3.35615 15.8884L3.36943 15.8934L3.37792 15.8965L7.03447 17.1275C7.02213 17.3569 7.04489 17.5909 7.10573 17.8217L8.93733 24.7697C9.1545 25.5935 9.89979 26.1673 10.7517 26.1667C11.5154 26.1662 12.1927 25.7042 12.4804 25.0149L15.34 21.9573L20.2512 25.7226L20.3211 25.7531C20.7673 25.9478 21.1842 26.0095 21.5653 25.9574C21.946 25.9054 22.2484 25.7458 22.4756 25.564C22.6992 25.3852 22.8524 25.1833 22.9488 25.0313C22.9977 24.9541 23.0342 24.8862 23.0595 24.8351C23.0722 24.8095 23.0823 24.7878 23.0898 24.7708L23.0992 24.7491L23.1026 24.741L23.1039 24.7378ZM8.91873 17.3437C8.8771 17.1858 8.94245 17.0191 9.08031 16.9315L21.4828 9.0554C21.4828 9.0554 22.2123 8.61253 22.1862 9.0554C22.1862 9.0554 22.3164 9.13361 21.9255 9.49827C21.5548 9.84461 13.0859 18.0209 12.229 18.8483C12.1795 18.896 12.15 18.9508 12.1326 19.0173L10.7503 24.2917L8.91873 17.3437Z" fill="#005C9D"/>
</svg>
