<svg width="552" height="500" viewBox="0 0 552 500" fill="none" xmlns="http://www.w3.org/2000/svg">
<path opacity="0.06" d="M22.7025 428.578C22.7025 428.578 -7.22368 365.044 42.5811 325.758C92.3858 286.462 1.04416 246.573 34.0025 197.776C66.9608 148.978 179.019 188.528 176.194 98.1284C173.369 7.72841 267.536 -16.7549 298.611 10.5534C329.686 37.8617 333.961 170.966 423.165 156.681C512.369 142.387 596.177 331.003 524.611 428.324L22.7025 428.578Z" fill="#2A94F4"/>
<path d="M549.623 438.046C549.623 445.156 543.86 450.928 536.741 450.928H12.882C5.77242 450.928 0 445.165 0 438.046C0 430.937 5.76301 425.164 12.882 425.164H536.75C543.86 425.174 549.623 430.937 549.623 438.046Z" fill="#F7F7F7"/>
<path d="M141.259 351.3L124.148 288.566H169.782V344.567H201.93V353.899H200.376L202.184 425.711H198.559V353.117H148.265L142.04 425.711H138.933L141.259 351.3Z" fill="#D3D3D3"/>
<path d="M236.264 330.753C234.927 329.802 233.693 328.7 233.128 328.38C232.893 328.248 232.149 328.078 231.942 328.013C231.32 327.824 230.331 327.636 229.898 327.146L228.062 325.131C227.186 324.142 226.047 323.813 225.058 324.688C223.984 325.63 224.305 326.977 225.369 327.928L226.631 329.359C227.478 330.122 227.902 331.195 228.373 332.241C229.333 334.359 231.49 335.951 233.345 337.071C234.512 337.768 236.273 337.279 238.58 336.488C239.71 336.101 241.358 335.16 239.946 334.632C238.759 334.19 235.19 335.15 233.608 331.864C233.533 331.704 233.363 331.271 233.524 331.12C234.004 330.668 235.058 331.685 235.765 332.005C236.753 332.457 237.544 332.307 237.799 331.939C238.053 331.563 237.215 331.431 236.264 330.753Z" fill="#FAB9AF"/>
<path d="M186.007 258.565C186.007 258.565 188.954 293.971 199.539 305.921C205.923 313.125 221.517 325.47 225.133 328.304C225.594 328.662 226.235 328.681 226.715 328.342C227.016 328.125 227.365 327.862 227.666 327.598C227.967 327.335 228.325 326.939 228.636 326.572C229.163 325.96 229.135 325.046 228.589 324.453C224.54 320.046 208.654 302.606 206.724 298.02C204.511 292.756 200.697 261.71 197.194 257.209C193.691 252.707 186.967 251.728 186.007 258.565V258.565Z" fill="#74D6F8"/>
<path d="M199.369 317.061L190.348 253.64L165.996 250.306L153.331 316.6L199.369 317.061Z" fill="#FAB9AF"/>
<path d="M200.302 315.441L190.348 253.64L165.997 250.297L152.908 315.554C152.663 316.779 153.454 317.974 154.687 318.2C159.217 319.057 170.159 320.856 182.391 320.856C191.525 320.856 196.658 319.076 198.993 317.956C199.456 317.737 199.834 317.373 200.07 316.919C200.307 316.465 200.388 315.946 200.302 315.441V315.441Z" fill="#D3D3D3"/>
<path d="M173.605 254.148C173.605 258.602 172.796 263.009 171.279 267.19C168.304 275.373 163.84 290.854 166.496 304.49C170.31 324.124 175.225 332.062 168.859 336.638C162.494 341.215 150.29 333.578 149.941 331.035C149.593 328.493 152.314 297.22 155.403 283.67C158.492 270.119 167.155 250.645 167.155 250.645L170.827 251.041C171.591 251.128 172.295 251.493 172.807 252.066C173.32 252.639 173.603 253.38 173.605 254.148V254.148ZM183.747 252.736C183.747 252.736 187.966 261.861 186.497 274.978C185.028 288.086 181.61 328.022 193.54 334.049C197.317 335.96 205.952 327.504 205.952 324.368C205.952 321.233 203.07 310.733 200.339 301.185C197.608 291.636 191.036 253.743 191.036 253.743L183.747 252.736V252.736Z" fill="#74D6F8"/>
<path d="M180.348 224.448C174.914 224.448 172.89 228.318 172.786 235.475C172.748 238.159 173.954 240.814 174.924 242.509C175.649 243.771 175.846 245.259 175.432 246.652L174.236 250.692C173.426 254.44 175.206 256.493 177.833 257.237C179.133 257.604 180.696 257.322 181.826 256.587C183.173 255.711 183.286 253.837 183.041 252.246L182.73 251.097C182.316 249.543 183.21 247.877 184.783 247.528C188.964 246.615 189.567 242.255 190.687 235.475C191.845 228.412 185.781 224.448 180.348 224.448V224.448Z" fill="#FAB9AF"/>
<path d="M192.994 221.312L189.877 222.264C188.733 222.613 187.512 222.62 186.364 222.282L180.14 220.474C176.373 220.474 170.149 222.603 170.93 228.045L171.627 231.887C171.9 233.422 173.19 234.571 174.744 234.703C174.885 235.23 175.375 235.607 175.921 235.607C176.599 235.607 177.145 235.061 177.145 234.392C177.145 232.66 178.36 231.181 180.055 230.795C182.127 230.334 184.349 230.221 186.666 230.842C190.988 232 195.546 229.326 195.979 224.863C196.007 224.58 196.016 224.298 196.016 224.006C196.026 222.207 194.538 220.889 192.994 221.312V221.312Z" fill="#0B4870"/>
<path d="M175.771 235.607C175.771 237.264 175.149 238.611 173.558 238.611C171.957 238.611 170.931 236.332 170.931 234.675C170.931 233.017 171.957 232.603 173.558 232.603C175.159 232.603 175.771 233.95 175.771 235.607Z" fill="#FAB9AF"/>
<path d="M175.112 242.895C175.112 242.895 179.171 248.479 184.218 247.717C184.218 247.717 183.173 248.216 182.919 249.035C182.919 249.035 178.126 248.677 175.112 242.895Z" fill="#E8948B"/>
<path d="M126.107 370.633L120.222 378.853C119.025 380.526 118.067 382.358 117.378 384.296L116.295 387.347C115.401 389.852 112.368 390.803 110.203 389.259C104.6 385.257 94.9946 378.458 92.518 376.706C92.1131 376.424 91.9059 375.868 92.1602 375.435C93.6574 372.883 99.8442 378.477 106.521 380.172C111.606 381.462 118.395 371.857 120.872 367.327C121.813 365.613 124.083 365.199 125.58 366.461C126.178 366.961 126.565 367.669 126.663 368.443C126.761 369.217 126.562 369.999 126.107 370.633V370.633Z" fill="#FAB9AF"/>
<path d="M204.775 327.617C203.616 327.033 186.233 306.75 175.216 305.017C164.208 303.275 163.049 310.234 149.141 326.459C135.233 342.684 114.365 375.143 114.365 375.143L120.74 379.776C120.74 379.776 150.299 343.842 159.565 335.15C168.841 326.459 172.607 324.425 175.498 332.542C178.399 340.659 185.348 354.567 199.256 346.45C213.174 338.342 204.775 327.617 204.775 327.617V327.617Z" fill="#0B4870"/>
<path d="M178.737 401.152L182.221 412.716C182.372 413.224 182.607 413.714 182.899 414.156L185.366 417.819C186.929 420.145 185.809 423.328 183.125 424.147C183.125 424.147 178.144 425.899 173.011 427.584C167.757 429.308 161.146 427.867 161.146 426.483C161.146 423.403 164.019 425.852 168.83 422.631C170.441 421.558 172.108 420.428 173.586 419.26C177.729 416.011 174.113 407.781 171.58 403.148C170.667 401.481 171.637 399.41 173.492 399.014L174.688 398.76C176.467 398.393 178.219 399.429 178.737 401.152V401.152Z" fill="#FAB9AF"/>
<path d="M169.424 322.4C169.424 322.4 152.041 321.242 156.099 340.367C160.158 359.493 172.324 408.167 172.324 408.167H183.332L180.432 339.783C180.432 339.793 171.74 322.4 169.424 322.4V322.4ZM182.372 413.139C182.372 413.139 178.021 415.362 175.46 415.399C175.46 415.399 176.251 419.251 170.168 421.746C164.085 424.251 160.968 422.688 160.968 426.323C160.968 429.948 168.746 431.511 173.934 429.948C179.123 428.394 185.856 423.724 187.419 422.688C188.963 421.652 182.372 413.139 182.372 413.139ZM118.009 382.234C118.009 382.234 113.225 379.88 111.53 377.657C111.53 377.657 108.677 380.859 102.528 377.168C96.3787 373.476 95.7101 369.738 92.5367 372.101C89.3633 374.465 93.0735 382.281 97.8101 385.803C102.547 389.325 111.022 392.178 112.943 392.865C114.864 393.553 118.009 382.234 118.009 382.234Z" fill="#0B4870"/>
<path d="M166.928 250.542C166.928 250.542 158.453 274.083 159.395 289.15C160.337 304.217 160.327 316.506 151.852 307.061C143.377 297.616 149.037 249.6 166.928 250.542Z" fill="#74D6F8"/>
<path d="M200.622 276.353C199.275 278.01 197.75 279.526 197.288 280.242C197.091 280.543 196.818 281.494 196.723 281.758C196.432 282.549 196.111 283.83 195.443 284.348L192.674 286.579C191.318 287.634 190.8 289.084 191.855 290.44C192.994 291.909 194.765 291.598 196.093 290.299L198.051 288.773C199.115 287.728 200.547 287.267 201.931 286.739C204.765 285.666 207.006 282.982 208.617 280.656C209.624 279.197 209.116 276.871 208.278 273.801C207.863 272.294 206.771 270.081 205.971 271.88C205.302 273.386 206.272 278.104 201.856 279.893C201.639 279.978 201.065 280.166 200.886 279.95C200.339 279.291 201.743 278.001 202.223 277.106C202.891 275.854 202.75 274.808 202.298 274.46C201.827 274.083 201.582 275.176 200.622 276.353V276.353Z" fill="#FAB9AF"/>
<path d="M148.999 300.535C148.999 300.535 151.08 318.304 160.883 311.731C170.695 305.158 188.587 296.683 193.295 292.917L198.003 289.15L195.094 283.001L148.999 300.535V300.535Z" fill="#74D6F8"/>
<path d="M438.383 350.358L455.493 287.625H409.869V343.625H377.721V352.957H379.274L377.457 424.769H381.092V352.176H431.386L437.611 424.769H440.718L438.383 350.358Z" fill="#D3D3D3"/>
<path d="M395.161 276.155C401.282 276.155 406.244 269.755 406.244 261.86C406.244 253.966 401.282 247.566 395.161 247.566C389.039 247.566 384.077 253.966 384.077 261.86C384.077 269.755 389.039 276.155 395.161 276.155Z" fill="#0B4870"/>
<path d="M397.816 263.339C397.995 255.429 404.399 248.771 412.299 248.319C419.305 247.914 425.36 252.218 427.629 258.348C428.42 260.495 430.53 261.898 432.818 261.86C433.769 261.842 434.748 261.936 435.747 262.134C441.538 263.32 446.039 268.217 446.642 274.093C447.188 279.394 444.711 284.159 440.719 286.871C439.014 288.029 438.054 289.95 437.771 291.984C436.462 301.42 427.856 308.341 418.025 307.268C409.625 306.345 402.901 299.433 402.186 291.014C401.743 285.845 403.523 281.108 406.64 277.586C401.338 275.081 397.675 269.639 397.816 263.339V263.339ZM395.161 242.876C395.161 242.876 388.927 246.803 389.68 252.086C389.68 252.086 386.347 249.732 385.594 241.605C385.076 235.974 395.161 242.876 395.161 242.876V242.876Z" fill="#0B4870"/>
<path d="M391.318 275.091C391.167 279.677 390.866 284.291 390.216 288.934C389.538 293.557 388.587 298.237 386.826 302.767C385.951 305.027 384.868 307.24 383.512 309.321C382.165 311.402 380.498 313.323 378.54 314.886C376.59 316.458 374.396 317.692 372.099 318.502C369.792 319.312 367.419 319.717 365.074 319.877C364.396 319.924 363.812 319.406 363.765 318.737C363.727 318.116 364.151 317.579 364.735 317.457H364.744C368.991 316.562 372.852 314.613 375.592 311.675C378.361 308.756 380.056 304.942 381.092 300.912C382.127 296.862 382.589 292.587 382.768 288.256C382.871 286.09 382.9 283.905 382.881 281.711C382.871 279.517 382.834 277.313 382.758 275.11C382.719 273.976 383.131 272.873 383.905 272.042C384.678 271.212 385.749 270.723 386.883 270.682C388.017 270.64 389.121 271.051 389.952 271.823C390.784 272.595 391.275 273.665 391.318 274.799V275.091Z" fill="#FAB9AF"/>
<path d="M388.183 302.484C385.687 294.97 380.668 279.046 381.102 273.839C381.234 272.232 381.966 270.735 383.153 269.644C384.34 268.554 385.893 267.95 387.505 267.953H409.21C412.807 267.953 415.755 270.806 415.858 274.404C416.037 280.694 413.146 294.998 411.517 302.484H388.183V302.484Z" fill="#2A94F4"/>
<path d="M413.993 312.014C412.873 308.862 412.534 305.485 413.005 302.173C414.097 294.48 416.018 279.988 415.839 273.838C415.793 272.259 415.133 270.759 413.999 269.658C412.865 268.557 411.346 267.942 409.765 267.944H406.545C405.321 270.787 402.722 272.982 398.682 272.982C394.652 272.982 392.053 270.787 390.829 267.944H387.806C391.092 274.978 389.906 284.253 384.256 289.668C385.31 293.378 386.186 297.116 386.845 300.139C387.74 304.235 387.344 308.511 385.734 312.39C382.956 319.048 380.762 329.726 381.412 333.954C404.247 340.424 420.03 328.973 420.03 328.973L413.993 312.014Z" fill="#2A94F4"/>
<path d="M395.16 269.45L405.01 268.415L401.893 257.642L395.527 258.423L395.16 269.45Z" fill="#FAB9AF"/>
<path d="M395.528 258.423L401.894 257.632L402.864 260.994C401.442 262.604 399.605 266.07 397.289 266.07C396.554 266.07 395.886 265.862 395.283 265.476L395.528 258.423Z" fill="#FA968C"/>
<path d="M395.301 263.64C397.467 263.64 399.803 262.557 403.023 259.742C404.869 258.122 406.244 255.306 406.244 253.404V242.876H390.038C390.038 242.876 388.823 248.47 390 254.016C390.885 258.169 393.606 263.64 395.301 263.64Z" fill="#FAB9AF"/>
<path d="M403.494 251.408C403.494 253.461 404.473 255.128 405.688 255.128C406.903 255.128 408.24 252.434 408.24 250.382C408.24 248.329 406.903 247.688 405.688 247.688C404.483 247.688 403.494 249.355 403.494 251.408V251.408Z" fill="#FAB9AF"/>
<path d="M408.24 244.148C408.24 242.569 407.613 241.056 406.497 239.94C405.381 238.823 403.867 238.196 402.289 238.196H396.818C395.255 238.196 393.739 237.792 392.402 237.029C390.471 235.936 388.032 236.294 386.714 238.083C385.292 240.014 384.67 242.603 388.286 244.995C390.085 246.182 392.703 244.863 394.454 245.438C394.558 245.438 394.662 245.419 394.775 245.419H399.596C401.272 245.419 402.553 246.784 402.6 248.461C402.628 249.525 403.494 250.372 404.568 250.372H404.784L405.557 247.896L408.25 251.521V244.148H408.24Z" fill="#0B4870"/>
<path d="M360.573 314.98C360.573 314.98 366.242 315.639 366.619 317.438C366.986 319.236 366.911 320.507 364.312 321.148C361.713 321.788 357.852 321.421 355.573 320.743C353.294 320.065 349.97 317.315 349.801 316.778C349.207 314.848 353.2 316.515 355.178 317.23C357.146 317.946 359.453 318.549 359.519 317.504C359.594 316.458 355.714 315.375 355.404 314.151C355.093 312.927 360.573 314.98 360.573 314.98V314.98ZM377.448 317.485C377.448 317.485 383.079 316.562 383.936 318.191C384.784 319.82 385.057 321.063 382.74 322.391C380.414 323.719 376.601 324.434 374.228 324.406C371.855 324.378 367.89 322.645 367.589 322.184C366.487 320.489 370.79 320.997 372.881 321.138C374.971 321.28 377.354 321.233 377.137 320.206C376.921 319.18 372.89 319.208 372.259 318.116C371.619 317.023 377.448 317.485 377.448 317.485V317.485Z" fill="#FAB9AF"/>
<path d="M391.244 242.688C391.79 245.09 390.989 246.408 398.871 250.165C406.753 253.922 409.248 252.312 411.715 256.361C411.715 256.361 410.642 249.666 406.282 247.368C401.931 245.071 394.379 243.564 391.95 238.244C391.95 238.244 390.876 241.04 391.244 242.688Z" fill="#0B4870"/>
<path d="M415.011 272.436C416.217 274.027 417.177 275.486 418.166 277.059C419.136 278.613 420.068 280.185 420.934 281.805C422.648 285.054 424.183 288.434 425.37 292.022C426.528 295.61 427.347 299.433 427.319 303.511C427.291 305.545 427.017 307.644 426.377 309.697C425.765 311.75 424.701 313.728 423.326 315.394C421.961 317.07 420.303 318.445 418.561 319.5C416.81 320.564 414.983 321.336 413.147 321.929C411.31 322.523 409.465 322.89 407.628 323.201C405.792 323.446 403.965 323.634 402.148 323.681C394.888 323.954 387.835 323.05 380.923 321.751C380.254 321.628 379.821 320.988 379.944 320.319C380.057 319.707 380.603 319.293 381.205 319.321H381.224C384.69 319.491 388.136 319.622 391.573 319.556C395.001 319.509 398.41 319.33 401.724 318.86C405.039 318.389 408.269 317.654 411.169 316.477C414.051 315.281 416.537 313.568 418.006 311.364C419.503 309.189 420.058 306.505 419.927 303.605C419.776 300.695 418.938 297.644 417.808 294.668C416.687 291.674 415.218 288.726 413.57 285.873C412.752 284.436 411.891 283.023 410.99 281.636C410.538 280.939 410.077 280.261 409.606 279.583C409.154 278.924 408.646 278.199 408.222 277.643L408.184 277.586C406.762 275.703 407.139 273.019 409.022 271.597C410.906 270.175 413.589 270.552 415.011 272.436V272.436Z" fill="#FAB9AF"/>
<path d="M392.76 243.14C392.76 243.14 392.458 251.239 385.377 255.137C385.377 255.137 388.494 249.016 388.287 245.005C388.08 241.003 393.23 240.372 392.76 243.14Z" fill="#0B4870"/>
<path d="M363.84 399.72L361.298 411.002C360.526 414.448 361.006 418.073 362.673 421.19C363.605 422.932 362.776 425.098 360.912 425.758C354.885 427.905 343.208 431.991 342.69 431.549C340.035 429.298 347.05 425.588 352.239 421.69C355.732 419.062 357.07 406.811 357.38 397.413L362.946 398.816C363.379 398.948 363.718 399.287 363.84 399.72V399.72Z" fill="#FA968C"/>
<path d="M397.242 327.937L420.435 328.964C420.435 328.964 426.622 348.032 415.284 349.577C403.946 351.121 370.96 347.515 369.924 352.665C368.898 357.816 363.737 403.176 363.737 403.176H356.006C356.006 403.176 356.524 374.314 356.006 359.361C355.488 344.407 353.426 338.23 359.613 335.65C365.8 333.098 397.242 327.937 397.242 327.937Z" fill="#0B4870"/>
<path d="M370.47 372.798C370.47 372.798 371.798 384.098 372.165 386C372.466 387.573 373.559 388.816 374.585 390.04C374.915 390.436 375.16 391.208 375.367 391.867C375.536 392.394 375.395 392.95 375.084 393.402C369.491 401.293 358.718 402.159 358.671 401.434C358.577 400.135 360.677 398.139 363.059 397.508C365.46 396.867 367.278 394.899 368.012 392.526C368.596 390.643 368.69 388.637 368.285 386.707L366.346 378.034L370.47 372.798V372.798Z" fill="#FA968C"/>
<path d="M376.722 396.528C377.268 396.161 377.466 395.455 377.193 394.861C376.967 394.372 376.374 393.044 375.922 392.046C375.877 391.947 375.808 391.862 375.721 391.797C375.634 391.733 375.532 391.692 375.424 391.678C375.317 391.664 375.208 391.677 375.107 391.717C375.006 391.756 374.917 391.821 374.848 391.905C371.345 395.982 366.618 398.619 361.561 397.969C359.688 398.609 358.03 400.747 358.106 401.773C358.124 402.018 360.281 402.63 362.908 401.943C374.566 398.901 376.722 396.528 376.722 396.528ZM383.813 330.762L368.351 334.369L371.957 382.309L366.289 383.335C366.289 383.335 352.371 349.831 352.889 334.369C353.407 318.907 365.771 323.549 372.993 325.602C380.206 327.674 383.813 330.762 383.813 330.762V330.762ZM353.425 424.91C350.93 425.729 348.199 425.993 345.694 426.304C345.412 426.341 345.129 426.454 344.903 426.624C342.502 428.488 341.287 430.362 342.7 431.549C343.265 432.029 356.985 427.17 362.334 425.249C363.454 424.844 363.944 423.554 363.379 422.499L362.362 420.588C359.565 422.377 356.58 423.865 353.425 424.91V424.91ZM219.756 312.71H346.787V317.381H219.756V312.71Z" fill="#0B4870"/>
<path d="M225.98 317.381H228.57V425.748H225.98V317.381ZM337.455 317.381H340.045V425.748H337.455V317.381Z" fill="#76838B"/>
<path d="M496.108 425.833C496.108 427.688 494.601 429.185 492.755 429.185H479.807C477.952 429.185 476.455 427.679 476.455 425.833V395.634C476.455 393.778 477.962 392.281 479.807 392.281H492.755C494.61 392.281 496.108 393.788 496.108 395.634V425.833Z" fill="#74D6F8"/>
<path opacity="0.4" d="M487.83 357.515C487.83 357.515 477.236 379.051 492.849 382.723C508.462 386.396 508.914 370.143 507.313 363.448C505.712 356.752 530.487 338.748 510.053 322.824C489.619 306.9 473.696 349.294 487.83 357.515Z" fill="#2A94F4"/>
<path opacity="0.4" d="M468.102 369.201C468.102 369.201 467.603 383.373 476.907 381.575C486.21 379.776 482.519 370.905 480.033 367.685C477.547 364.464 486.549 348.767 471.68 345.123C456.821 341.488 458.497 368.203 468.102 369.201V369.201Z" fill="#2A94F4"/>
<path d="M469.684 355.848L481.192 392.281M476.398 363.259L473.96 369.38L468.413 366.32M500.307 335.235L490.439 392.281M506.099 343.861L497.925 349.021L492.68 341.94M503.867 355.82L495.684 360.99L490.439 353.908" stroke="#4D4D4D" stroke-miterlimit="10"/>
<path d="M64.8235 425.833C64.8235 427.688 63.3168 429.185 61.4711 429.185H48.5232C46.6681 429.185 45.1709 427.679 45.1709 425.833V395.634C45.1709 393.778 46.6776 392.281 48.5232 392.281H61.4711C63.3262 392.281 64.8235 393.788 64.8235 395.634V425.833Z" fill="#74D6F8"/>
<path opacity="0.4" d="M56.5468 357.515C56.5468 357.515 45.953 379.051 61.5659 382.723C77.1787 386.396 77.6307 370.143 76.0299 363.448C74.4291 356.752 99.2043 338.748 78.7702 322.824C58.336 306.9 42.4124 349.294 56.5468 357.515Z" fill="#2A94F4"/>
<path opacity="0.4" d="M36.8183 369.201C36.8183 369.201 36.3193 383.373 45.6229 381.575C54.9266 379.776 51.2353 370.906 48.7493 367.685C46.2633 364.465 55.2656 348.767 40.3967 345.123C25.5278 341.478 27.2133 368.203 36.8183 369.201Z" fill="#2A94F4"/>
<path d="M38.4011 355.848L49.9083 392.281M45.1152 363.259L42.6763 369.38L37.1299 366.32M69.0241 335.235L59.1555 392.281M74.8154 343.861L66.6417 349.021L61.3966 341.94M72.5836 355.82L64.4005 360.99L59.1555 353.908" stroke="#4D4D4D" stroke-miterlimit="10"/>
<path d="M261.105 165.029H179.274C177.118 165.029 175.366 166.78 175.366 168.937V197.667C175.366 199.823 177.118 201.575 179.274 201.575H184.905V214.334L200.537 201.575H261.105C263.261 201.575 265.013 199.823 265.013 197.667V168.937C265.012 167.901 264.6 166.907 263.867 166.174C263.135 165.442 262.141 165.03 261.105 165.029V165.029ZM181.28 182.148H230.011V183.796H181.28V182.148ZM255.436 189.682H181.28V188.034H255.436V189.682ZM255.436 178.146H181.28V176.498H255.436V178.146Z" fill="#74D6F8"/>
<path d="M312.84 180.237V208.967C312.84 211.123 314.591 212.875 316.748 212.875H377.316L392.947 225.635V212.875H398.579C400.735 212.875 402.487 211.123 402.487 208.967V180.237C402.487 178.08 400.735 176.329 398.579 176.329H316.748C314.591 176.329 312.84 178.071 312.84 180.237V180.237ZM396.573 195.096H347.842V193.448H396.573V195.096ZM322.417 199.334H396.573V200.982H322.417V199.334ZM322.417 187.798H396.573V189.446H322.417V187.798Z" fill="#2A94F4"/>
<path opacity="0.4" d="M37.7838 299.024C39.0575 292.384 36.7776 286.366 32.6916 285.582C28.6055 284.798 24.2606 289.545 22.9869 296.185C21.7132 302.825 23.9931 308.843 28.0791 309.627C32.1651 310.411 36.5101 305.664 37.7838 299.024Z" fill="#74D6F8"/>
<path opacity="0.4" d="M38.6887 293.127C41.6306 290.185 41.2608 285.046 37.8628 281.648C34.4648 278.25 29.3253 277.88 26.3834 280.822C23.4415 283.764 23.8113 288.904 27.2093 292.302C30.6073 295.7 35.7468 296.069 38.6887 293.127Z" fill="#74D6F8"/>
<path opacity="0.4" d="M524.61 299.015C525.884 292.375 523.604 286.357 519.518 285.574C515.432 284.79 511.087 289.537 509.813 296.177C508.539 302.817 510.819 308.835 514.905 309.618C518.991 310.402 523.336 305.655 524.61 299.015Z" fill="#74D6F8"/>
<path opacity="0.4" d="M525.527 293.13C528.468 290.188 528.099 285.049 524.701 281.651C521.303 278.253 516.163 277.883 513.221 280.825C510.279 283.767 510.649 288.907 514.047 292.305C517.445 295.703 522.585 296.072 525.527 293.13Z" fill="#74D6F8"/>
<path d="M145.27 478.425H41.6866C39.6055 478.425 37.9199 476.739 37.9199 474.658C37.9199 472.577 39.6055 470.892 41.6866 470.892H145.27C147.351 470.892 149.037 472.577 149.037 474.658C149.037 476.739 147.351 478.425 145.27 478.425ZM319.478 478.425H215.895C213.814 478.425 212.128 476.739 212.128 474.658C212.128 472.577 213.814 470.892 215.895 470.892H319.478C321.559 470.892 323.245 472.577 323.245 474.658C323.245 476.739 321.559 478.425 319.478 478.425ZM503.103 478.425H399.52C397.439 478.425 395.753 476.739 395.753 474.658C395.753 472.577 397.439 470.892 399.52 470.892H503.103C505.184 470.892 506.87 472.577 506.87 474.658C506.87 476.739 505.184 478.425 503.103 478.425ZM235.67 499.142H132.087C130.006 499.142 128.32 497.456 128.32 495.375C128.32 493.294 130.006 491.608 132.087 491.608H235.67C237.751 491.608 239.437 493.294 239.437 495.375C239.437 497.456 237.751 499.142 235.67 499.142ZM415.528 499.142H311.945C309.864 499.142 308.178 497.456 308.178 495.375C308.178 493.294 309.864 491.608 311.945 491.608H415.528C417.609 491.608 419.295 493.294 419.295 495.375C419.295 497.456 417.609 499.142 415.528 499.142Z" fill="#D3D3D3"/>
</svg>
