<svg width="655" height="517" viewBox="0 0 655 517" fill="none" xmlns="http://www.w3.org/2000/svg">
<path opacity="0.1" d="M560.597 495.492C563.936 495.105 686.051 407.506 627.804 316.112C569.558 224.719 442.643 239.456 461.857 199.639C481.071 159.822 442.445 -31.2643 290.379 4.41541C138.313 40.0951 122.574 146.641 188.625 214.076C254.675 281.51 157.353 358.143 100.229 291.989C43.1054 225.835 -36.4257 328.075 18.4627 374.301C73.3511 420.527 26.3011 557.03 560.597 495.492Z" fill="#2A94F4"/>
<path d="M483.485 383.6C483.485 383.6 473.227 410.609 470.987 421.16C468.747 431.711 468.8 442.035 468.8 442.035L449.61 437.791C449.61 437.791 454.086 380.976 458.339 376.974C462.587 372.972 483.229 374.649 483.229 374.649L483.485 383.6Z" fill="#0E538C"/>
<path d="M505.52 369.361C505.52 369.361 509.071 413.659 511.312 421.16C513.552 428.661 533.869 457.893 533.869 457.893L512.168 452.354C512.168 452.354 489.204 429.115 479.421 380.149C472.521 345.586 496.365 354.566 505.52 369.361V369.361Z" fill="#0E538C"/>
<path d="M461.959 307.543C461.959 307.543 437.5 304.474 425.602 299.181C413.704 293.884 377.831 271.911 377.831 271.911L383.662 264.86C383.662 264.86 417.226 282.158 423.831 285.628C430.436 289.099 462.859 294.27 462.859 294.27L461.959 307.543V307.543Z" fill="#FFE3CA"/>
<path d="M501.538 316.185C502.404 337.732 504.625 368.578 505.52 369.361C505.52 369.361 494.788 377.984 485.764 379.439C476.745 380.894 456.67 381.01 456.67 381.01C456.67 381.01 462.795 339.452 462.999 332.666C463.202 325.88 460.594 300.82 460.594 300.82C505.52 274.444 501.509 315.45 501.538 316.185V316.185Z" fill="#74D6F8"/>
<path d="M477.166 287.895L477.225 292.197C477.268 295.358 479.929 297.852 483.094 297.692L483.989 297.649C487.047 297.494 489.413 294.904 489.282 291.844L489.098 287.441C488.953 284.043 485.827 281.564 482.479 282.197L481.71 282.342C479.049 282.844 477.133 285.189 477.166 287.895V287.895Z" fill="#FCD2B1"/>
<path d="M467.91 262.206C467.91 262.206 462.689 276.991 467.291 285.338C471.892 293.686 488.866 290.592 491.764 278.987C498.141 253.438 475.235 254.594 467.91 262.206Z" fill="#FFE3CA"/>
<path d="M479.362 310.627C479.362 310.627 463.255 314.348 445.231 306.755L448.759 291.081L477.224 292.202C477.224 292.197 478.192 300.612 479.362 310.627V310.627Z" fill="#74D6F8"/>
<path d="M498.383 296.189C497.599 296.987 508.229 331.569 494.488 343.59C486.91 350.216 451.265 359.646 451.265 359.646C450.95 360.067 448.759 360.7 446.547 361.241C443.122 362.082 439.507 360.999 437.103 358.423C436.924 358.23 436.759 358.051 436.614 357.892C436.392 357.645 436.227 357.354 436.129 357.038C436.031 356.722 436.004 356.388 436.048 356.06C436.15 355.296 436.489 354.583 437.017 354.022C437.546 353.461 438.237 353.08 438.994 352.933C439.657 352.802 440.335 352.701 440.881 352.681C444.181 352.575 446.789 353.919 450.051 353.803L452.102 353.73C452.102 353.73 480.862 341.946 484.704 338.979C496.36 329.969 490.796 314.295 491.817 307.934L498.383 296.189V296.189Z" fill="#FCD2B1"/>
<path d="M458.049 354.982C458.049 354.982 451.822 351.217 447.893 351.009C446.112 350.917 443.127 349.888 442.193 348.96C441.259 348.027 440.514 351.637 442.101 352.198C443.688 352.759 447.622 353.643 446.727 355.634L458.049 354.982Z" fill="#FCD2B1"/>
<path d="M491.319 292.985C491.319 292.985 505.52 291.989 506.971 323.88L488.885 328.858C488.885 328.858 475.245 310.061 491.319 292.985V292.985Z" fill="#74D6F8"/>
<path d="M378.421 273.207C378.421 273.207 381.6 273.569 386.56 273.081C391.519 272.588 388.868 270.703 388.868 270.703L385.911 266.75C385.911 266.75 383.313 260.374 380.047 258.369C379.283 257.9 378.992 257.503 378.431 256.841C377.923 256.242 371.909 255.599 377.241 259.722C378.639 260.805 378.445 261.704 377.618 261.713C376.791 261.723 371.101 256.875 369.073 258.054C363.461 261.331 366.944 268.432 369.847 269.857C372.668 271.235 378.421 273.207 378.421 273.207V273.207Z" fill="#FFE3CA"/>
<path d="M494.87 258.228C494.716 258.581 494.227 258.62 494.038 258.286C492.519 255.579 487.317 247.812 478.613 249.799C469.497 251.882 464.968 258.402 462.563 257.145C462.191 256.947 461.76 257.271 461.881 257.672C462.312 259.108 463.415 260.882 466.255 260.471C466.516 260.432 466.758 260.635 466.773 260.901C466.836 262.022 466.628 264.565 463.463 264.381C463.081 264.357 462.825 264.768 463.028 265.091C463.608 266.015 464.837 267.276 466.904 266.363C467.025 266.309 467.116 266.203 467.16 266.077C467.46 265.188 468.989 261.515 473.513 261.853C473.682 261.868 473.832 261.984 473.905 262.138C474.195 262.786 475.395 264.497 480.113 265.377C485.634 266.406 487.216 270.495 484.767 273.308C484.53 273.579 484.671 274.009 485.024 274.072C486.185 274.265 488.314 274.222 489.509 271.766C491.208 268.272 493.806 271.665 492.611 273.666C491.517 275.488 491.837 281.22 489.093 284.178C488.812 284.478 489.059 284.971 489.471 284.947C490.917 284.85 493.259 284.401 494.517 282.554C496.419 279.756 501.717 275.865 500.014 268.175C498.446 261.075 497.014 258.315 499.612 256.522C499.927 256.304 499.888 255.826 499.53 255.695C498.369 255.28 496.259 255.072 494.87 258.228V258.228Z" fill="#0B4870"/>
<path d="M297.811 207.546C297.811 207.546 316.439 233.39 326.044 242.177C334.376 249.804 356.183 260.113 363.426 263.946L365.159 264.86L368.197 258.891C368.197 258.891 338.939 238.417 333.118 233.743C327.302 229.074 310.507 203.631 310.507 203.631L297.811 207.546ZM283.779 199.344C282.826 198.759 241.718 205.357 232.447 201.432C223.177 197.507 202.656 167.4 202.656 167.4L196.308 163.553C193.781 162.022 191.741 159.806 190.424 157.163L189.079 154.466C187.652 151.6 189.747 148.236 192.955 148.251L198.843 150.049C201.103 150.738 203.149 151.99 204.79 153.687C206.432 155.384 207.614 157.47 208.225 159.749L208.758 161.731C208.758 161.731 233.168 187.609 237.31 190.141C241.447 192.674 261.672 186.695 268.102 186.26L283.779 199.344V199.344Z" fill="#B97A59"/>
<path d="M225.407 290.462C225.407 290.462 268.248 286.673 287.641 250.137L262.272 251.906C262.272 251.906 213.175 279.128 209.44 284.343C205.705 289.558 216.161 354.929 216.161 354.929H226.428L225.407 290.462V290.462Z" fill="#0E538C"/>
<path d="M262.272 251.906C262.272 251.906 267.875 317.258 280.567 342.246C293.263 367.235 309.318 402.296 309.318 402.296L321.796 398.936L294.008 325.832C294.008 325.832 290.689 290.771 291.396 286.296C292.102 281.82 298.755 263.932 292.034 250.133L262.272 251.906V251.906Z" fill="#0E538C"/>
<path d="M248.739 189.484L250.186 205.062C250.186 205.062 262.045 206.705 261.9 207.425C257.516 228.542 250.283 258.61 249.271 259.234C249.271 259.234 260.71 260.268 269.371 263.178C278.032 266.087 294.575 274.449 294.575 274.449C294.575 274.449 296.312 236.705 297.226 229.982C298.136 223.254 304.808 198.957 304.808 198.957C281.97 176.555 248.739 189.484 248.739 189.484Z" fill="#74D6F8"/>
<path d="M290.568 183.491L289.809 187.725C289.247 190.837 286.214 192.862 283.122 192.186L282.246 191.992C279.251 191.34 277.344 188.396 277.973 185.4L280.199 174.771L286.997 177.26C289.542 178.203 291.047 180.827 290.568 183.491V183.491Z" fill="#A86D52"/>
<path d="M305.49 162.475C305.49 162.475 303.854 179.904 296.737 186.25C289.619 192.596 275.273 181.886 276.391 169.981C278.868 143.76 301.106 152.862 305.49 162.475V162.475Z" fill="#B97A59"/>
<path d="M292.847 190.248C292.847 190.248 308.006 196.84 317.949 213.665L305.766 224.153L292.029 211.007C292.034 211.007 287.815 198.981 292.847 190.248V190.248Z" fill="#74D6F8"/>
<path d="M39.5059 516.43C39.5059 516.43 111.005 362.643 195.2 362.754C292.716 362.88 222.645 415.901 320.654 418.7C418.664 421.498 612.404 479.566 612.404 479.566L654.407 516.425H39.5059V516.43Z" fill="#CCE9FF"/>
<path d="M218.12 354.924L217.399 355.344C213.335 357.713 208.917 359.39 204.35 360.506C194.905 362.807 193.995 367.423 193.995 367.423C193.642 368.061 196.584 369.859 197.31 369.801L212.74 366.447C215.379 365.872 218.091 365.702 220.781 365.944L225.126 366.331C227.144 366.292 228.615 364.412 228.16 362.445L226.428 354.924H218.12V354.924ZM309.317 402.291C309.317 402.291 305.77 415.205 295.968 414.369C295.968 414.369 290.563 422.997 305.209 420.802C310.812 419.961 311.993 412.692 323.692 414.509C326.925 415.012 328.734 411.155 328.734 411.155C329.953 406.974 326.716 404.553 323.842 401.276L321.796 398.936L309.317 402.291V402.291ZM177.583 365.258L172.667 364.895L203.382 74.6196L208.293 74.9821L177.583 365.258Z" fill="#0B4870"/>
<path d="M203.324 77.51C203.324 77.51 164.422 47.9155 148.77 67.6404C128.109 93.6727 114.145 83.8272 106.94 75.9005C106.94 75.9005 113.269 91.6959 86.6475 116.771C86.6475 116.771 121.853 142.48 141.497 126.626C161.137 110.773 194.237 128.521 198.263 140.798L203.324 77.51V77.51Z" fill="#74D6F8"/>
<path d="M365.566 266.305C365.566 266.305 363.03 264.357 359.808 260.553C356.59 256.754 359.808 257.238 359.808 257.238L364.685 256.45C364.685 256.45 370.99 253.675 374.735 254.507C375.611 254.7 376.094 254.618 376.961 254.531C377.74 254.454 382.51 258.17 375.809 257.426C374.053 257.233 373.564 258.011 374.149 258.596C374.735 259.181 382.201 259.654 382.835 261.911C384.581 268.166 377.13 270.843 374.053 269.848C371.067 268.886 365.566 266.305 365.566 266.305V266.305Z" fill="#B97A59"/>
<path d="M282.846 157.492C282.846 157.492 285.609 165.97 295.412 164.853C305.215 163.732 304.015 171.04 304.015 171.04C304.015 171.04 312.264 163.654 305.674 157.497C299.079 151.334 296.578 143.321 282.846 150.126C269.114 156.931 272.39 169.711 276.116 174.834L277.287 176.008C278.017 176.738 279.237 176.598 279.774 175.718L279.779 175.709C280.098 175.187 280.088 174.534 279.759 174.017C278.801 172.504 277.093 169.232 278.714 167.318C279.706 166.148 280.475 166.395 281.022 167.004C281.917 168.009 283.311 168.401 284.554 167.879L284.651 167.84C284.651 167.835 289.296 163.094 282.846 157.492V157.492Z" fill="#0B4870"/>
</svg>
