<svg width="661" height="477" viewBox="0 0 661 477" fill="none" xmlns="http://www.w3.org/2000/svg">
<path d="M163.766 108.342C142.413 117.948 120.624 128.654 105.626 146.639C100.622 152.638 96.3171 159.923 96.7522 167.722C97.5631 182.265 114.242 190.928 128.805 190.954C143.368 190.98 157.536 185.522 172.099 185.561C179.614 185.581 189.022 189.22 188.923 196.742C188.864 201.238 185.251 204.779 181.902 207.772C156.198 230.747 130.493 253.722 104.782 276.697C96.2182 284.351 87.3841 292.374 82.9275 302.962C78.4709 313.55 79.7565 327.5 88.9795 334.356C95.0513 338.872 103.114 339.465 110.682 339.597C145.05 340.21 179.239 334.923 213.039 328.693C332.556 306.674 449.851 272.656 562.611 227.332C583.259 219.032 605.423 208.833 615.253 188.871C626.605 165.797 614.495 134.264 590.61 124.731C576.337 119.029 560.291 120.657 545.18 117.862C530.07 115.067 513.866 104.71 513.707 89.3489C513.457 63.9345 554.581 54.2895 555.761 28.9014C556.388 15.4591 544.172 4.1001 531.033 1.17958C517.894 -1.74094 504.247 1.77951 491.405 5.81417C491.405 5.80099 258.488 65.7408 163.766 108.342Z" fill="#F7F7F7"/>
<path d="M128.351 372.02C139.182 362.533 151.57 352.473 165.948 353.119C177.887 353.653 188.297 361.689 195.72 371.064C203.144 380.432 208.398 391.336 215.518 400.941C223.02 411.054 233.859 420.165 246.45 420.073C259.669 419.974 270.461 410 279.815 400.658L341.759 338.813C353.198 327.394 367.075 315.079 383.115 317.051C399.128 319.022 409.604 334.303 417.937 348.121C430.614 369.145 443.285 390.176 455.963 411.199C458.488 415.392 461.191 419.757 465.436 422.196C476.664 428.65 489.882 418.392 498.762 408.965C507.906 399.254 517.314 389.398 529.114 383.168C540.909 376.938 555.722 374.854 567.51 381.104C575.025 385.086 580.53 391.942 585.817 398.608C606.235 424.358 626.658 450.109 647.076 475.86H26.5215C26.5215 475.853 94.4054 401.746 128.351 372.02V372.02Z" fill="#CCE9FF"/>
<path d="M141.588 372.718C150.132 365.249 159.481 357.246 170.873 354.767C182.449 352.248 193.36 357.378 201.647 365.256C217.496 380.326 223.231 404.093 242.402 416.012C250.729 421.187 260.479 422.525 269.682 418.886C279.064 415.181 286.507 407.883 293.528 400.882C312.178 382.278 330.822 363.654 349.466 345.036C363.812 330.71 383.879 309.08 405.998 321.527C414.911 326.544 421.22 335.24 426.606 343.698C433.284 354.193 439.514 364.992 445.935 375.646C452.726 386.912 459.516 398.172 466.307 409.439C471.146 417.462 476.69 426.191 487.37 425.097C496.843 424.121 504.992 416.948 511.321 410.382C519.43 401.97 527.347 393.268 537.249 386.899C547.039 380.597 559.058 376.72 570.746 378.909C582.527 381.117 590.234 389.945 597.334 398.878C613.803 419.598 630.225 440.358 646.673 461.099C650.754 466.248 654.842 471.396 658.922 476.552C659.153 475.991 659.39 475.424 659.621 474.864H48.4087C45.7651 474.864 42.7259 474.442 40.102 474.864C39.779 474.917 39.4032 474.864 39.0736 474.864C39.3043 475.424 39.5417 475.991 39.7724 476.552C64.4551 449.608 89.5992 423.007 115.574 397.302C124.039 388.91 132.616 380.59 141.588 372.718C142.544 371.875 141.147 370.484 140.191 371.321C122.945 386.451 106.878 402.978 90.9177 419.434C76.1042 434.709 61.4884 450.188 47.0111 465.786C44.1235 468.898 41.2294 472.016 38.3616 475.154C37.7946 475.774 38.177 476.842 39.0604 476.842H634.372C642.428 476.842 650.523 477.066 658.58 476.842C658.922 476.835 659.265 476.842 659.608 476.842C660.538 476.842 660.814 475.794 660.307 475.154C643.43 453.867 626.546 432.579 609.669 411.292C602.417 402.148 595.581 391.619 586.443 384.209C578.348 377.643 568.274 375.349 558.029 376.773C547.409 378.25 537.882 383.392 529.576 389.998C520.484 397.23 513.378 406.44 504.642 414.014C495.973 421.537 483.091 428.063 473.961 417.462C469.807 412.637 466.86 406.552 463.584 401.119C460.077 395.298 456.569 389.483 453.062 383.662L432.355 349.308C427.252 340.843 421.952 332.207 414.614 325.463C408.035 319.417 399.721 315.376 390.617 315.897C380.708 316.464 371.94 321.916 364.471 328.067C354.977 335.886 346.585 345.122 337.889 353.798C328.337 363.337 318.784 372.877 309.225 382.41C300.523 391.099 292.124 400.348 282.742 408.305C273.816 415.88 262.747 421.556 250.874 417.805C228.044 410.593 220.91 383.431 206.295 367.2C199.636 359.804 190.881 353.554 180.781 352.321C170.398 351.049 160.628 355.597 152.354 361.471C148.095 364.491 144.12 367.88 140.191 371.314C139.228 372.165 140.632 373.556 141.588 372.718V372.718Z" fill="#CCE9FF"/>
<path d="M609.208 171.143C596.332 158.96 580.708 155.545 561.379 156.449C558.214 156.6 554.674 157.128 552.848 159.316C551.028 161.505 552.993 165.5 556.085 164.887C534.257 154.563 508.236 150.68 483.527 154.062C480.797 154.438 477.824 155.031 476.189 156.91C474.561 158.795 475.642 162.237 478.411 162.263C458.112 153.844 421.504 170.102 425.169 171.506L609.208 171.143V171.143ZM520.326 287.595C508.427 276.335 493.982 273.177 476.123 274.014C473.196 274.153 469.926 274.641 468.238 276.664C466.557 278.688 468.377 282.38 471.225 281.813C451.052 272.267 427.002 268.681 404.165 271.806C401.64 272.149 398.891 272.702 397.388 274.443C395.878 276.183 396.88 279.367 399.438 279.394C380.676 271.608 346.849 286.639 350.238 287.938L520.326 287.595Z" fill="#DCF2FF"/>
<path d="M161.933 260.051L29.5669 262.82L90.1726 275.247L57.4008 299.145L163.779 274.278L161.933 260.051Z" fill="#74D6F8"/>
<path d="M166.64 279.321L23.001 363.858L102.31 304.241L26.2841 302.6L166.64 267.329V279.321Z" fill="#74D6F8"/>
<path d="M54.5598 331.567L76.2824 312.258L0.263184 307.28L52.2853 279.341L2.24755 255.858H63.1697L28.5124 217.305L29.6661 217.674C30.9913 218.096 162.039 259.728 166.64 259.728H167.478L125.747 298.532L54.5598 331.567V331.567ZM2.60355 306.773L77.9041 311.704L58.3571 329.082L125.43 297.952L165.922 260.282C155.018 258.133 44.0776 222.935 30.6287 218.663L64.653 256.511H5.20104L53.7489 279.295L2.60355 306.773Z" fill="#74D6F8"/>
<path d="M155.617 255.878L70.0717 221.768L88.1025 244.947L7.62012 234.3L163.779 271.344L155.617 255.878Z" fill="#74D6F8"/>
<path d="M295.638 150.838C295.638 150.838 284.898 188.851 323.992 193.987C322.041 198.054 321.645 199.709 321.645 199.709C321.645 199.709 281.82 190.183 283.797 165.902C290.812 150.574 295.638 150.838 295.638 150.838Z" fill="#2189D6"/>
<path d="M211.054 220.891L171.07 201.858L125.608 256.181L163.779 247.841L211.054 220.891ZM226.686 292.427L198.278 326.405L134.31 295.987L172.475 287.648L226.686 292.427Z" fill="#2A94F4"/>
<path d="M177.669 281.47L161.623 283.369L155.617 255.878L171.07 251.296L177.669 281.47Z" fill="#0E538C"/>
<path d="M430.851 210.343C430.851 210.343 389.852 254.625 336.795 278.042C335.806 278.477 334.817 278.906 333.822 279.321C332.833 279.75 331.831 280.158 330.835 280.561C322.008 284.127 312.877 287.068 303.581 289.098C258.699 298.908 205.048 296.106 172.613 288.287L163.779 247.842C189.998 227.194 237.451 201.647 282.333 191.844C291.629 189.814 301.149 188.68 310.662 188.245C311.743 188.192 312.824 188.152 313.899 188.119C314.98 188.086 316.055 188.06 317.136 188.047C375.124 187.196 430.851 210.343 430.851 210.343V210.343Z" fill="#CCE9FF"/>
<path d="M430.852 210.343C430.852 210.343 389.852 254.625 336.795 278.042C335.806 278.477 334.817 278.906 333.822 279.321C320.953 267.455 312.343 252.845 308.882 236.99C305.421 221.142 307.155 204.271 313.906 188.119C314.987 188.086 316.061 188.06 317.143 188.047C375.124 187.196 430.852 210.343 430.852 210.343V210.343Z" fill="#2A94F4"/>
<path d="M317.136 188.047C316.055 188.06 314.98 188.086 313.899 188.119C312.825 188.152 311.743 188.192 310.662 188.245C307.61 195.839 305.612 203.572 304.716 211.279C303.687 220.159 304.116 229.02 305.995 237.617C307.874 246.213 311.176 254.454 315.818 262.088C319.846 268.72 324.889 274.924 330.829 280.554C331.824 280.152 332.826 279.737 333.815 279.315C334.811 278.893 335.8 278.471 336.789 278.036C324.131 266.696 315.303 252.588 311.757 236.357C308.216 220.126 310.359 203.632 317.136 188.047V188.047Z" fill="#0E538C"/>
<path d="M329.768 191.818C346.823 192.596 404.481 204.014 417.739 209.743C406.288 208.866 335.958 196.09 331.877 201.482C329.913 195.912 329.768 191.818 329.768 191.818Z" fill="#CCE9FF"/>
<path d="M220.034 261.983L148.722 277.568L129.959 276.084L146.394 266.914L217.706 251.336L220.034 261.983Z" fill="#2A94F4"/>
<path d="M290.258 261.719L300.846 275.247L286.098 266.505V268.483L282.538 266.09L285.887 260.051L290.258 261.719Z" fill="#0B4870"/>
<path d="M300.562 226.693C301.531 225.48 300.859 223.673 299.336 223.383C286.322 220.885 257.13 213.415 252.72 208.583C247.802 203.197 254.592 196.176 259.51 192.431L275.088 199.056L315.257 217.911C315.519 218.034 315.751 218.211 315.941 218.429C316.13 218.647 316.271 218.903 316.356 219.179C316.44 219.456 316.466 219.747 316.431 220.034C316.396 220.32 316.302 220.597 316.154 220.845L291.445 262.827C291.445 262.827 286.995 262.359 283.955 261.653C283.955 261.653 295.499 231.736 300.562 226.693V226.693Z" fill="#0B3E60"/>
<path d="M305.856 197.29H316.866L313.484 198.325L316.866 201.186L313.226 204.831L305.856 200.54V197.29Z" fill="#FCD2B1"/>
<path d="M296.118 149.645L292.176 172.429L275.088 199.05L256.866 194.211L273.948 144.845L293.178 140.686L296.118 149.645Z" fill="#2A94F4"/>
<path d="M301.834 143.698L295.637 150.838L293.178 140.686L296.119 138.853L301.834 143.698Z" fill="#FCD2B1"/>
<path d="M294.892 121.29C292.077 122.424 290.666 129.636 291.102 131.159C291.537 132.682 295.69 138.853 295.69 138.853L303.1 122.556L294.892 121.29V121.29Z" fill="#0E538C"/>
<path d="M305.823 126.228C305.823 126.228 311.374 147.271 307.28 146.316C303.186 145.353 297.2 144.568 296.442 142.538C295.684 140.507 293.884 127.131 295.605 125.068C297.325 123.004 305.507 124.923 305.507 124.923L305.823 126.228Z" fill="#FFE3CA"/>
<path d="M294.345 126.874C293.357 126.03 292.935 124.573 293.317 123.327C293.858 121.58 295.723 120.571 297.523 120.255C299.323 119.939 301.175 120.136 302.988 119.873C304.795 119.609 306.693 118.719 307.379 117.031C308.355 117.901 308.902 119.233 308.823 120.539C309.429 119.991 310.042 119.444 310.649 118.897C309.772 121.567 308.75 124.435 306.403 125.977C304.116 127.474 301.162 127.316 298.439 127.105C298.433 127.098 295.334 127.718 294.345 126.874V126.874Z" fill="#0E538C"/>
<path d="M298.215 126.472L294.391 132.379L294.016 125.035L298.215 126.472Z" fill="#0E538C"/>
<path d="M295.553 136.338C296.264 136.123 296.601 135.155 296.305 134.176C296.01 133.196 295.193 132.576 294.482 132.791C293.771 133.006 293.435 133.974 293.73 134.953C294.026 135.933 294.842 136.553 295.553 136.338Z" fill="#FFE3CA"/>
<path d="M273.948 144.846C273.948 144.846 246.575 197.29 306.93 201.911C306.627 198.971 306.627 196.703 306.627 196.703C306.627 196.703 275.398 192.543 280.138 165.401C280.646 162.507 281.588 159.712 282.755 157.015C288.069 144.707 273.948 144.846 273.948 144.846Z" fill="#45AFFF"/>
<path d="M564.319 280.983C562.117 281.253 559.829 281.536 558.161 281.754C545.114 264.851 534.072 232.857 528.461 196.98C530.518 196.729 532.569 196.472 534.625 196.222C540.236 232.085 551.272 264.073 564.319 280.983Z" fill="#F7F7F7"/>
<path d="M564.319 280.982L564.734 281.516C562.677 281.767 560.627 282.024 558.57 282.275C558.431 282.103 558.3 281.925 558.161 281.754C559.829 281.536 562.117 281.253 564.319 280.982Z" fill="#F7F7F7"/>
<path d="M564.734 281.517C567.378 284.872 570.107 287.602 572.882 289.619L566.718 290.377C563.943 288.36 561.213 285.63 558.57 282.275C560.627 282.024 562.677 281.767 564.734 281.517Z" fill="#F7F7F7"/>
<path d="M538.232 157.048C539.102 205.906 554.449 256.148 572.513 269.274L566.349 270.032C548.285 256.906 532.938 206.664 532.068 157.807C531.85 145.59 532.555 134.62 534.026 125.239C536.082 124.989 538.133 124.731 540.19 124.481C538.726 133.862 538.014 144.832 538.232 157.048Z" fill="#74D6F8"/>
<path d="M554.825 214.298C559.367 229.171 565.485 240.768 572.098 245.574L565.934 246.332C559.321 241.526 553.203 229.929 548.661 215.057C550.718 214.806 552.768 214.549 554.825 214.298V214.298Z" fill="#F7F7F7"/>
<path d="M565.519 215.558C567.437 219.078 569.527 221.774 571.702 223.35L565.538 224.108C563.369 222.533 561.273 219.836 559.354 216.316C561.405 216.065 563.462 215.815 565.519 215.558Z" fill="#74D6F8"/>
<path d="M563.989 179.615C564.813 188.937 567.826 197.679 571.287 200.197L565.123 200.955C561.662 198.437 558.649 189.695 557.825 180.373C559.875 180.116 561.932 179.865 563.989 179.615ZM546.994 163.41C547.31 181.289 550.283 199.426 554.826 214.299C552.769 214.549 550.718 214.806 548.661 215.057C544.119 200.19 541.153 182.054 540.829 164.168C540.309 135.154 546.928 115.726 556.5 114.546L562.664 113.788C553.092 114.975 546.479 134.403 546.994 163.41Z" fill="#F7F7F7"/>
<path d="M530.709 151.583C530.98 166.601 532.357 181.724 534.625 196.222C532.568 196.472 530.518 196.729 528.461 196.98C526.193 182.489 524.816 167.359 524.545 152.341C523.675 103.596 534.79 70.9491 550.876 68.9713L557.04 68.2131C540.954 70.1909 529.839 102.837 530.709 151.583V151.583Z" fill="#F7F7F7"/>
<path d="M555.207 169.383C555.524 187.005 559.756 205.003 565.512 215.564C563.455 215.815 561.404 216.072 559.348 216.322C553.586 205.761 549.353 187.763 549.043 170.141C548.7 151.082 553.045 138.319 559.334 137.548L565.498 136.789C559.216 137.561 554.871 150.324 555.207 169.383ZM559.638 89.2634C550.593 90.3776 543.479 103.424 540.189 124.481C538.133 124.732 536.082 124.989 534.025 125.239C537.315 104.182 544.429 91.1357 553.474 90.0216C555.326 89.7974 557.792 89.4942 559.638 89.2634Z" fill="#74D6F8"/>
<path d="M563.772 175.6C563.798 176.938 563.87 178.277 563.989 179.608C561.932 179.859 559.882 180.116 557.825 180.366C557.706 179.033 557.634 177.696 557.607 176.358C557.449 167.676 559.434 161.861 562.301 161.512L568.465 160.753C565.598 161.103 563.613 166.924 563.772 175.6Z" fill="#F7F7F7"/>
<path d="M571.696 223.35C573.337 224.543 574.906 225.011 576.37 224.833L570.206 225.592C568.742 225.77 567.173 225.302 565.532 224.108C567.384 223.884 569.896 222.889 571.696 223.35Z" fill="#74D6F8"/>
<path d="M571.287 200.19C572.032 200.731 572.751 200.948 573.417 200.863L567.252 201.621C566.587 201.7 565.868 201.489 565.123 200.948C566.969 200.724 569.481 199.722 571.287 200.19ZM572.098 245.574C574.597 247.387 576.983 248.105 579.211 247.828L573.047 248.586C570.819 248.863 568.433 248.145 565.934 246.332C567.78 246.108 570.246 245.798 572.098 245.574Z" fill="#F7F7F7"/>
<path d="M572.52 269.274C575.928 271.753 579.191 272.729 582.237 272.353L576.073 273.111C573.027 273.487 569.764 272.511 566.355 270.032C568.201 269.808 570.713 268.806 572.52 269.274Z" fill="#74D6F8"/>
<path d="M572.882 289.619C577.075 292.665 581.09 293.871 584.835 293.41L578.671 294.168C574.926 294.629 570.911 293.423 566.718 290.377C568.564 290.153 571.03 289.843 572.882 289.619Z" fill="#F7F7F7"/>
<path d="M562.301 161.512L568.465 160.753C569.131 160.674 569.85 160.885 570.595 161.426L564.431 162.184C563.679 161.643 562.967 161.432 562.301 161.512Z" fill="#74D6F8"/>
<path d="M559.341 137.547L565.505 136.789C566.969 136.611 568.538 137.079 570.18 138.273L564.015 139.031C562.374 137.837 560.805 137.363 559.341 137.547Z" fill="#F7F7F7"/>
<path d="M556.5 114.552L562.664 113.794C564.892 113.517 567.285 114.236 569.784 116.049L563.62 116.807C561.121 114.988 558.728 114.276 556.5 114.552ZM573.417 200.863L567.253 201.621C570.114 201.265 572.098 195.457 571.94 186.768C571.749 176.068 568.386 165.052 564.431 162.184L570.595 161.426C574.551 164.3 577.913 175.31 578.104 186.01C578.256 194.699 576.278 200.513 573.417 200.863Z" fill="#74D6F8"/>
<path d="M553.474 90.0214L559.638 89.2633C562.683 88.8875 565.947 89.8632 569.362 92.342L563.198 93.1001C559.783 90.6279 556.519 89.6456 553.474 90.0214Z" fill="#F7F7F7"/>
<path d="M550.876 68.9715L557.041 68.2133C560.785 67.7518 564.8 68.9517 568.999 72.0041L562.835 72.7622C558.636 69.7098 554.621 68.51 550.876 68.9715Z" fill="#74D6F8"/>
<path d="M576.37 224.833L570.206 225.592C576.495 224.814 580.84 212.05 580.497 192.998C580.075 169.502 572.691 145.34 564.009 139.031L570.173 138.273C578.855 144.582 586.239 168.744 586.661 192.24C587.004 211.292 582.659 224.056 576.37 224.833Z" fill="#F7F7F7"/>
<path d="M579.211 247.828L573.047 248.587C582.619 247.406 589.232 227.972 588.718 198.964C588.078 163.193 576.838 126.413 563.62 116.807L569.784 116.049C583.002 125.654 594.242 162.441 594.882 198.206C595.396 227.213 588.784 246.648 579.211 247.828Z" fill="#74D6F8"/>
<path d="M582.237 272.353L576.073 273.111C589.146 271.496 598.178 244.954 597.473 205.326C596.603 156.468 581.255 106.226 563.191 93.1002L569.355 92.342C587.419 105.461 602.767 155.71 603.637 204.568C604.349 244.196 595.317 270.744 582.237 272.353V272.353Z" fill="#F7F7F7"/>
<path d="M584.841 293.41L578.677 294.168C594.757 292.183 605.872 259.537 605.002 210.798C603.927 150.706 585.046 88.9073 562.835 72.7621L569 72.0039C591.217 88.1426 610.091 149.948 611.166 210.04C612.036 258.779 600.921 291.425 584.841 293.41Z" fill="#74D6F8"/>
<path d="M562.835 72.762C585.052 88.9006 603.927 150.706 605.001 210.798C606.076 270.896 588.935 306.522 566.718 290.383C544.501 274.245 525.62 212.446 524.545 152.348C523.477 92.2497 540.618 56.6167 562.835 72.762ZM566.356 270.032C584.419 283.151 598.349 254.19 597.479 205.326C596.609 156.468 581.261 106.226 563.198 93.1001C545.134 79.9743 531.204 108.949 532.074 157.806C532.944 206.671 548.292 256.913 566.356 270.032Z" fill="#74D6F8"/>
<path d="M564.015 139.031C572.698 145.34 580.081 169.502 580.503 192.998C580.925 216.494 574.221 230.424 565.538 224.115C556.849 217.806 549.472 193.644 549.05 170.148C548.628 146.645 555.333 132.715 564.015 139.031ZM565.123 200.948C569.078 203.823 572.131 197.481 571.94 186.774C571.748 176.075 568.386 165.058 564.431 162.191C560.475 159.316 557.416 165.665 557.607 176.365C557.798 187.071 561.161 198.074 565.123 200.948Z" fill="#F7F7F7"/>
<path d="M597.479 205.332C596.84 169.456 588.388 132.827 576.798 110.702C576.554 110.234 576.304 109.766 576.053 109.311C574.807 107.024 573.522 104.907 572.21 102.969C571.946 102.58 571.683 102.204 571.419 101.829C568.775 98.1105 566.019 95.157 563.198 93.1067C559.809 90.6477 556.572 89.6654 553.546 90.0214C551.779 90.2258 550.092 90.885 548.483 91.9728C548.022 92.2826 547.573 92.6255 547.132 93.0078C546.69 93.3836 546.248 93.7989 545.82 94.2472C544.534 95.5855 543.321 97.2205 542.181 99.1389C541.798 99.7784 541.429 100.451 541.073 101.15C540.701 101.871 540.349 102.603 540.018 103.345C539.675 104.11 539.339 104.901 539.016 105.718C534.645 116.8 532.054 133.216 532.035 153.297C532.035 154.787 532.048 156.29 532.074 157.82C532.417 176.905 534.962 196.202 539.023 213.415L539.517 215.472C540.856 220.924 542.339 226.158 543.961 231.09C545.78 236.641 547.758 241.809 549.874 246.497C550.342 247.538 550.817 248.553 551.298 249.549C555.874 258.983 560.996 266.149 566.362 270.045C567.206 270.658 568.043 271.186 568.874 271.614C569.428 271.904 569.975 272.148 570.516 272.359C571.056 272.57 571.597 272.735 572.124 272.867C572.922 273.065 573.706 273.17 574.484 273.197C574.999 273.21 575.513 273.19 576.014 273.131C588.619 271.66 597.486 247.044 597.519 209.862C597.519 208.365 597.506 206.855 597.479 205.332V205.332ZM565.934 246.332C552.709 236.726 541.469 199.94 540.836 164.175C540.196 128.403 550.402 107.202 563.626 116.807C576.845 126.413 588.085 163.199 588.724 198.964C589.357 234.735 579.152 255.937 565.934 246.332Z" fill="#F7F7F7"/>
<path d="M587.406 314.196L581.242 314.954C600.294 312.601 613.46 273.928 612.425 216.184C611.152 144.997 588.79 71.7797 562.473 52.6612L568.637 51.9031C594.954 71.0216 617.323 144.239 618.589 215.426C619.624 273.17 606.458 311.849 587.406 314.196V314.196Z" fill="#DBDBDB"/>
<path d="M612.431 216.19C611.159 145.004 588.797 71.7863 562.479 52.6677C536.161 33.5426 515.856 75.755 517.122 146.948C518.394 218.142 540.756 291.353 567.081 310.471C593.392 329.59 613.697 287.384 612.431 216.19ZM604.408 234.617C604.223 237.168 603.999 239.653 603.742 242.066C603.418 245.102 603.018 248.129 602.542 251.144C602.331 252.483 602.107 253.795 601.87 255.08C601.745 255.772 601.613 256.451 601.481 257.13C601.237 258.357 600.98 259.55 600.716 260.723C600.657 260.994 600.591 261.264 600.532 261.534C600.307 262.497 600.077 263.44 599.833 264.362C599.76 264.653 599.681 264.936 599.602 265.226C598.864 267.962 598.066 270.527 597.196 272.913C597.07 273.256 596.945 273.586 596.82 273.922C596.207 275.55 595.561 277.086 594.882 278.537C594.229 279.928 593.557 281.24 592.858 282.459C592.067 283.837 591.243 285.109 590.392 286.256C589.937 286.87 589.469 287.45 588.988 287.997C588.929 288.069 588.863 288.142 588.803 288.208C588.081 289.029 587.304 289.8 586.476 290.515C585.929 290.983 585.375 291.405 584.808 291.788C584.241 292.17 583.674 292.506 583.088 292.803C582.507 293.1 581.914 293.35 581.321 293.554C580.78 293.746 580.233 293.891 579.679 294.003L579.363 294.062C578.822 294.161 578.275 294.227 577.721 294.253C577.695 294.253 577.668 294.26 577.642 294.26C574.194 294.405 570.529 293.159 566.711 290.39C553.091 280.495 540.73 253.445 532.951 220.146C532.641 218.834 532.344 217.509 532.054 216.177C531.599 214.094 531.158 211.991 530.736 209.868C530.103 206.677 529.516 203.44 528.969 200.17C528.771 198.984 528.58 197.784 528.395 196.591C526.879 186.814 525.765 176.754 525.125 166.634L525.106 166.278C524.816 161.637 524.624 156.989 524.545 152.348C523.471 92.2563 540.611 56.6233 562.828 72.7685C564.879 74.2585 566.903 76.144 568.887 78.3722C569.316 78.8535 569.744 79.3546 570.166 79.8688C589.06 102.771 604.045 157.457 604.995 210.798C605.153 219.243 604.942 227.213 604.408 234.617" fill="#F7F7F7"/>
<path d="M570.687 175.811C570.568 175.251 570.443 174.69 570.311 174.15C570.239 173.853 570.16 173.556 570.087 173.266C569.937 172.691 569.774 172.12 569.599 171.552C569.513 171.275 569.428 170.998 569.342 170.728C569.164 170.187 568.979 169.667 568.788 169.159C567.549 165.869 566.039 163.364 564.431 162.191C563.936 161.828 563.455 161.617 562.993 161.538C560.455 161.096 558.477 164.722 557.831 170.84C557.805 171.117 557.772 171.4 557.752 171.691C557.706 172.264 557.667 172.864 557.64 173.477C557.601 174.4 557.594 175.363 557.607 176.371C557.693 181.059 558.379 185.799 559.466 189.893C559.618 190.479 559.783 191.046 559.954 191.607C560.297 192.721 560.666 193.769 561.055 194.745C561.451 195.721 561.866 196.617 562.308 197.415C562.42 197.613 562.525 197.81 562.637 198.002C563.086 198.753 563.547 199.412 564.028 199.953C564.384 200.362 564.754 200.698 565.123 200.968C566.606 202.043 567.964 201.825 569.072 200.566C569.256 200.355 569.434 200.118 569.606 199.854C570.028 199.188 570.41 198.351 570.733 197.356C570.865 196.96 570.984 196.538 571.089 196.09C571.254 195.424 571.399 194.699 571.518 193.927C571.801 192.128 571.953 190.064 571.953 187.783C571.953 187.46 571.953 187.124 571.946 186.794C571.874 183.036 571.419 179.265 570.687 175.811V175.811Z" fill="#74D6F8"/>
<path d="M548.305 48.1784L554.469 47.4202C558.906 46.873 563.666 48.297 568.637 51.9098L562.473 52.6679C557.502 49.0552 552.742 47.6312 548.305 48.1784Z" fill="#DBDBDB"/>
<path d="M563.62 116.807C576.838 126.413 588.078 163.199 588.718 198.964C589.357 234.735 579.152 255.937 565.934 246.332C552.709 236.726 541.469 199.94 540.836 164.175C540.19 128.404 550.395 107.202 563.62 116.807ZM565.538 224.115C574.221 230.424 580.925 216.494 580.503 192.998C580.081 169.502 572.698 145.34 564.015 139.031C555.326 132.722 548.628 146.645 549.043 170.148C549.465 193.637 556.849 217.799 565.538 224.115Z" fill="#74D6F8"/>
<path d="M349.334 79.4468C331.831 62.8928 310.596 58.2451 284.324 59.4779C280.019 59.6822 275.207 60.4008 272.735 63.3741C270.256 66.3473 272.932 71.7797 277.132 70.9424C247.465 56.9068 212.096 51.6327 178.513 56.2277C174.802 56.7354 170.76 57.5396 168.545 60.1042C166.33 62.6621 167.8 67.3428 171.558 67.3824C143.962 55.9311 94.2072 78.0228 99.1912 79.9347L349.334 79.4468Z" fill="#DCF2FF"/>
</svg>
