<svg width="45" height="30" viewBox="0 0 45 30" fill="none" xmlns="http://www.w3.org/2000/svg">
<g clip-path="url(#clip0_108_1249)">
<path d="M30 0.600098C22.0575 0.600098 15.5985 7.0606 15.5985 15.0001C15.5985 22.9396 22.0575 29.4001 30 29.4001C37.9395 29.4001 44.4 22.9396 44.4 15.0001C44.4 7.0606 37.9395 0.600098 30 0.600098ZM42.282 15.0001C42.282 17.8096 41.328 20.4001 39.738 22.4701C39.288 22.1191 38.8095 21.1696 39.2595 20.1856C39.714 19.1956 39.8325 16.9036 39.7275 16.0111C39.6285 15.1201 39.165 12.9736 37.9065 12.9526C36.6495 12.9346 35.787 12.5191 35.04 11.0281C33.4905 7.9261 37.9485 7.3306 36.399 5.6146C35.9655 5.1316 33.7245 7.5976 33.396 4.3111C33.375 4.0756 33.5985 3.7231 33.9 3.3571C38.766 4.9921 42.282 9.5926 42.282 15.0001ZM28.3125 2.8396C28.0185 3.4126 27.243 3.6451 26.772 4.0756C25.746 5.0041 25.305 4.8751 24.753 5.7661C24.1965 6.6571 22.4025 7.9396 22.4025 8.5846C22.4025 9.2296 23.3085 9.9886 23.7615 9.8416C24.2145 9.6916 25.41 9.7006 26.112 9.9466C26.8155 10.1956 31.983 10.4446 30.336 14.8126C29.814 16.2016 27.5265 15.9676 26.9175 18.2671C26.826 18.6046 26.5095 20.0461 26.49 20.5171C26.4525 21.2461 27.006 23.9941 26.3025 23.9941C25.596 23.9941 23.6955 21.5356 23.6955 21.0901C23.6955 20.6446 23.2035 19.0831 23.2035 17.7451C23.2035 16.4086 20.9265 16.4296 20.9265 14.6521C20.9265 13.0501 22.161 12.2521 21.8835 11.4826C21.612 10.7176 19.443 10.6921 18.5385 10.5976C19.3294 8.55135 20.6523 6.75339 22.3706 5.38953C24.0889 4.02567 26.1402 3.14537 28.3125 2.8396ZM26.136 26.6551C26.874 26.2651 26.949 25.7611 27.618 25.7356C28.383 25.7011 29.0055 25.4371 29.868 25.2466C30.633 25.0801 32.0025 24.3031 33.207 24.2041C34.224 24.1216 36.2295 24.2566 36.7695 25.2376C35.2211 26.2659 33.4588 26.9279 31.6163 27.1735C29.7739 27.4191 27.8997 27.2418 26.136 26.6551Z" fill="#005C9D"/>
</g>
<path d="M5.5 19L0.73686 12.25H10.2631L5.5 19Z" fill="#005C9D"/>
<defs>
<clipPath id="clip0_108_1249">
<rect width="30" height="30" fill="white" transform="translate(15)"/>
</clipPath>
</defs>
</svg>
